<svg width="90" height="90" viewBox="0 0 90 90" fill="none" xmlns="http://www.w3.org/2000/svg">
<path d="M34.2877 40.0912L35.0637 39.3153C42.4838 31.8949 54.5145 31.8949 61.9346 39.3153C69.3551 46.7354 69.3551 58.7662 61.9346 66.1863L51.1864 76.9346C43.7663 84.3551 31.7355 84.3551 24.3152 76.9346C16.895 69.5144 16.895 57.4837 24.3152 50.0636L26.0565 48.3224" stroke="#E8EAED" stroke-width="2.25" stroke-linecap="round"/>
<path d="M63.9435 41.6775L65.6846 39.9364C73.1051 32.5161 73.1051 20.4855 65.6846 13.0652C58.2645 5.64494 46.2338 5.64494 38.8136 13.0652L28.0652 23.8137C20.645 31.2339 20.645 43.2645 28.0652 50.6846C35.4855 58.1051 47.5163 58.1051 54.9364 50.6846L55.7123 49.9087" stroke="#E8EAED" stroke-width="2.25" stroke-linecap="round"/>
</svg>
