<svg width="90" height="90" viewBox="0 0 90 90" fill="none" xmlns="http://www.w3.org/2000/svg">
<path d="M71.7956 82.5L65.2223 37.4246C64.6909 33.7813 64.4254 31.9596 64.9969 30.2799C66.1898 26.7747 69.9311 25.4392 71.67 22.4304C71.9265 21.9869 72.0544 21.4861 72.3098 20.4846L74.4341 12.1595C74.9816 10.0146 75.2554 8.94221 74.6805 8.22109C74.106 7.5 72.9776 7.5 70.7205 7.5H66.7313C64.221 7.5 64.1093 7.57391 63.177 9.85729L61.2743 14.5177C60.342 16.8011 60.2306 16.875 57.72 16.875H55.794C53.214 16.875 52.5581 16.3969 52.0403 13.8605L51.3574 10.5145C50.8395 7.97809 50.1836 7.5 47.6036 7.5H42.3964C39.8164 7.5 39.1605 7.97809 38.6426 10.5145L37.9598 13.8605C37.4418 16.3969 36.7859 16.875 34.206 16.875H32.28C29.7696 16.875 29.6582 16.8011 28.7258 14.5177L26.8229 9.85729C25.8906 7.57391 25.7792 7.5 23.2688 7.5H19.2794C17.0225 7.5 15.8941 7.5 15.3194 8.22109C14.7447 8.94221 15.0183 10.0146 15.5657 12.1595L17.6903 20.4846C17.9458 21.4861 18.0736 21.9869 18.33 22.4304C20.0689 25.4392 23.8104 26.7747 25.0031 30.2799C25.5746 31.9596 25.309 33.7813 24.7777 37.4246L18.2046 82.5" stroke="#E8EAED" stroke-width="2.25" stroke-linecap="round" stroke-linejoin="round"/>
<path d="M33.75 82.5L36.0291 71.1041C36.5674 68.4128 36.8366 67.0669 37.5581 66.072C39.3506 63.6008 42.2295 63.75 45 63.75C47.7705 63.75 50.6494 63.6008 52.4419 66.072C53.1634 67.0669 53.4326 68.4128 53.9708 71.1041L56.25 82.5" stroke="#E8EAED" stroke-width="2.25" stroke-linecap="round" stroke-linejoin="round"/>
<path d="M11.25 82.5H78.75" stroke="#E8EAED" stroke-width="2.25" stroke-linecap="round" stroke-linejoin="round"/>
<path d="M26.25 30H63.75" stroke="#E8EAED" stroke-width="2.25" stroke-linecap="round" stroke-linejoin="round"/>
<path d="M56.25 41.25H63.75" stroke="#E8EAED" stroke-width="2.25" stroke-linecap="round" stroke-linejoin="round"/>
<path d="M26.25 48.75H33.75" stroke="#E8EAED" stroke-width="2.25" stroke-linecap="round" stroke-linejoin="round"/>
</svg>
