<svg width="90" height="90" viewBox="0 0 90 90" fill="none" xmlns="http://www.w3.org/2000/svg">
<path d="M51.4785 12.9157L58.0777 26.2233C58.9777 28.0758 61.3774 29.8526 63.4024 30.1929L75.3634 32.1966C83.0126 33.482 84.8126 39.0772 79.3005 44.5969L70.0016 53.9726C68.4266 55.5604 67.5645 58.6226 68.0516 60.8156L70.7141 72.4219C72.8138 81.6086 67.9766 85.1625 59.9152 80.361L48.7039 73.6695C46.6793 72.4597 43.3421 72.4597 41.2796 73.6695L30.0685 80.361C22.0444 85.1625 17.1699 81.5707 19.2697 72.4219L21.9319 60.8156C22.4193 58.6226 21.5569 55.5604 19.9821 53.9726L10.6831 44.5969C5.20875 39.0772 6.97106 33.482 14.6202 32.1966L26.5814 30.1929C28.5687 29.8526 30.9684 28.0758 31.8683 26.2233L38.4675 12.9157C42.0671 5.69478 47.9164 5.69478 51.4785 12.9157Z" stroke="#E8EAED" stroke-width="2.25" stroke-linecap="round" stroke-linejoin="round"/>
</svg>
