<svg width="90" height="90" viewBox="0 0 90 90" fill="none" xmlns="http://www.w3.org/2000/svg">
<path d="M11.25 71.25C11.25 76.5532 11.25 79.2049 12.8975 80.8526C14.5451 82.5 17.1967 82.5 22.5 82.5C27.8033 82.5 30.455 82.5 32.1025 80.8526C33.75 79.2049 33.75 76.5532 33.75 71.25C33.75 65.9468 33.75 63.2951 32.1025 61.6474C30.455 60 27.8033 60 22.5 60C17.1967 60 14.5451 60 12.8975 61.6474C11.25 63.2951 11.25 65.9468 11.25 71.25Z" stroke="#E8EAED" stroke-width="2.25"/>
<path d="M11.25 18.75C11.25 24.0533 11.25 26.7049 12.8975 28.3525C14.5451 30 17.1967 30 22.5 30C27.8033 30 30.455 30 32.1025 28.3525C33.75 26.7049 33.75 24.0533 33.75 18.75C33.75 13.4467 33.75 10.7951 32.1025 9.14753C30.455 7.5 27.8033 7.5 22.5 7.5C17.1967 7.5 14.5451 7.5 12.8975 9.14753C11.25 10.7951 11.25 13.4467 11.25 18.75Z" stroke="#E8EAED" stroke-width="2.25"/>
<path d="M56.25 18.75C56.25 24.0533 56.25 26.7049 57.8974 28.3525C59.5451 30 62.1968 30 67.5 30C72.8032 30 75.4549 30 77.1026 28.3525C78.75 26.7049 78.75 24.0533 78.75 18.75C78.75 13.4467 78.75 10.7951 77.1026 9.14753C75.4549 7.5 72.8032 7.5 67.5 7.5C62.1968 7.5 59.5451 7.5 57.8974 9.14753C56.25 10.7951 56.25 13.4467 56.25 18.75Z" stroke="#E8EAED" stroke-width="2.25"/>
<path d="M22.5 30V60" stroke="#E8EAED" stroke-width="2.25" stroke-linecap="round" stroke-linejoin="round"/>
<path d="M22.5 45H52.5C59.571 45 63.1065 45 65.3032 42.8032C67.5 40.6065 67.5 37.0711 67.5 30" stroke="#E8EAED" stroke-width="2.25" stroke-linecap="round" stroke-linejoin="round"/>
</svg>
